<svg width="30" height="31" viewBox="0 0 30 31" fill="none" xmlns="http://www.w3.org/2000/svg">
<path d="M10.3125 26.75C11.348 26.75 12.1875 25.9105 12.1875 24.875C12.1875 23.8395 11.348 23 10.3125 23C9.27697 23 8.4375 23.8395 8.4375 24.875C8.4375 25.9105 9.27697 26.75 10.3125 26.75Z" fill="black"/>
<path d="M23.4375 26.75C24.473 26.75 25.3125 25.9105 25.3125 24.875C25.3125 23.8395 24.473 23 23.4375 23C22.402 23 21.5625 23.8395 21.5625 24.875C21.5625 25.9105 22.402 26.75 23.4375 26.75Z" fill="black"/>
<path d="M26.7656 7.57695C26.6339 7.41585 26.468 7.28609 26.2799 7.19711C26.0918 7.10812 25.8862 7.06214 25.6781 7.0625H7.84512L7.48594 5.02461C7.44764 4.80754 7.33407 4.6109 7.1652 4.46924C6.99632 4.32758 6.78292 4.24995 6.5625 4.25H2.8125C2.56386 4.25 2.3254 4.34877 2.14959 4.52459C1.97377 4.7004 1.875 4.93886 1.875 5.1875C1.875 5.43614 1.97377 5.6746 2.14959 5.85041C2.3254 6.02623 2.56386 6.125 2.8125 6.125H5.77617L8.45156 21.2879C8.48986 21.505 8.60342 21.7016 8.7723 21.8433C8.94118 21.9849 9.15457 22.0625 9.375 22.0625H24.375C24.6236 22.0625 24.8621 21.9637 25.0379 21.7879C25.2137 21.6121 25.3125 21.3736 25.3125 21.125C25.3125 20.8764 25.2137 20.6379 25.0379 20.4621C24.8621 20.2863 24.6236 20.1875 24.375 20.1875H10.1613L9.83086 18.3125H23.9906C24.3157 18.3121 24.6307 18.1994 24.8823 17.9934C25.1339 17.7874 25.3065 17.5009 25.3711 17.1822L27.0586 8.74473C27.0992 8.54053 27.0941 8.32985 27.0434 8.1279C26.9927 7.92595 26.8979 7.73777 26.7656 7.57695Z" fill="#2C3E50"/>
</svg>
