<svg width="51" height="47" viewBox="0 0 51 47" fill="none" xmlns="http://www.w3.org/2000/svg">
<path d="M20.1166 35.25C21.2211 35.25 22.1166 34.4083 22.1166 33.37C22.1166 32.3317 21.2211 31.49 20.1166 31.49C19.012 31.49 18.1166 32.3317 18.1166 33.37C18.1166 34.4083 19.012 35.25 20.1166 35.25Z" fill="#2C3E50"/>
<path d="M35.1166 35.25C36.2211 35.25 37.1166 34.4083 37.1166 33.37C37.1166 32.3317 36.2211 31.49 35.1166 31.49C34.012 31.49 33.1166 32.3317 33.1166 33.37C33.1166 34.4083 34.012 35.25 35.1166 35.25Z" fill="#2C3E50"/>
<path d="M38.7484 15.2614C38.5969 15.0914 38.406 14.9544 38.1897 14.8605C37.9733 14.7666 37.7368 14.718 37.4975 14.7184H16.984L16.5709 12.5676C16.5268 12.3384 16.3962 12.1309 16.2019 11.9814C16.0077 11.8319 15.7622 11.75 15.5086 11.75H11.195C10.909 11.75 10.6347 11.8542 10.4324 12.0398C10.2302 12.2254 10.1166 12.477 10.1166 12.7395C10.1166 13.0019 10.2302 13.2536 10.4324 13.4391C10.6347 13.6247 10.909 13.7289 11.195 13.7289H14.6041L17.6816 29.7324C17.7257 29.9616 17.8563 30.1691 18.0506 30.3186C18.2449 30.4681 18.4903 30.55 18.7439 30.55H35.9985C36.2845 30.55 36.5588 30.4458 36.761 30.2602C36.9633 30.0746 37.0769 29.823 37.0769 29.5605C37.0769 29.2981 36.9633 29.0464 36.761 28.8609C36.5588 28.6753 36.2845 28.5711 35.9985 28.5711H19.6484L19.2683 26.5921H35.5563C35.9303 26.5917 36.2927 26.4727 36.582 26.2553C36.8714 26.0379 37.07 25.7355 37.1443 25.3992L39.0854 16.4939C39.1322 16.2784 39.1262 16.056 39.068 15.8429C39.0097 15.6297 38.9005 15.4311 38.7484 15.2614Z" fill="#2C3E50"/>
</svg>
