<svg width="50" height="47" viewBox="0 0 50 47" fill="none" xmlns="http://www.w3.org/2000/svg">
<path d="M25 34.2527C24.614 34.2523 24.2371 34.1451 23.9183 33.9453C19.1956 31.0004 17.1507 28.9813 16.0227 27.7189C13.619 25.028 12.4682 22.2653 12.5007 19.2736C12.5385 15.8452 15.533 13.0566 19.1758 13.0566C21.8247 13.0566 23.6593 14.4272 24.7278 15.5687C24.7616 15.6045 24.8034 15.6332 24.8504 15.6529C24.8974 15.6725 24.9484 15.6827 25 15.6827C25.0516 15.6827 25.1026 15.6725 25.1496 15.6529C25.1966 15.6332 25.2384 15.6045 25.2722 15.5687C26.3407 14.4261 28.1753 13.0566 30.8242 13.0566C34.467 13.0566 37.4615 15.8452 37.4993 19.2742C37.5318 22.2664 36.3798 25.0291 33.9773 27.7195C32.8493 28.9819 30.8044 31.001 26.0817 33.9458C25.7628 34.1455 25.3859 34.2524 25 34.2527Z" fill="#2C3E50"/>
</svg>
