<svg width="30" height="31" viewBox="0 0 30 31" fill="none" xmlns="http://www.w3.org/2000/svg">
<path d="M27.1875 25.5781L19.9172 18.3066C21.0888 16.6966 21.7191 14.7561 21.7172 12.7648C21.7172 7.55293 17.4768 3.3125 12.2648 3.3125C7.05293 3.3125 2.8125 7.55293 2.8125 12.7648C2.8125 17.9768 7.05293 22.2172 12.2648 22.2172C14.2561 22.2191 16.1966 21.5888 17.8066 20.4172L25.0781 27.6875L27.1875 25.5781ZM12.2648 19.2318C10.9856 19.232 9.73511 18.8527 8.67143 18.1421C7.60775 17.4315 6.7787 16.4214 6.28911 15.2396C5.79952 14.0577 5.67139 12.7573 5.92092 11.5026C6.17046 10.248 6.78645 9.09553 7.69099 8.19099C8.59553 7.28645 9.748 6.67046 11.0026 6.42092C12.2573 6.17139 13.5577 6.29952 14.7396 6.78911C15.9214 7.2787 16.9315 8.10775 17.6421 9.17143C18.3527 10.2351 18.732 11.4856 18.7318 12.7648C18.7298 14.4794 18.0478 16.1231 16.8355 17.3355C15.6231 18.5478 13.9794 19.2298 12.2648 19.2318Z" fill="#2C3E50"/>
</svg>
